<svg width="115" height="115" viewBox="0 0 115 115" fill="none" xmlns="http://www.w3.org/2000/svg">
<path d="M54.5801 76.3672C52.1094 78.8379 48.291 78.8379 45.8203 76.3672L31.4453 61.9922C28.9746 59.5215 28.9746 55.7031 31.4453 53.2324C33.916 50.7617 37.7344 50.7617 40.2051 53.2324L50.3125 63.1152L74.5703 38.8574C77.041 36.3867 80.8594 36.3867 83.3301 38.8574C85.8008 41.3281 85.8008 45.1465 83.3301 47.6172L54.5801 76.3672ZM115 57.5C115 89.3945 89.1699 115 57.5 115C25.6055 115 0 89.3945 0 57.5C0 25.8301 25.6055 0 57.5 0C89.1699 0 115 25.8301 115 57.5ZM57.5 10.7812C31.6699 10.7812 10.7812 31.8945 10.7812 57.5C10.7812 83.3301 31.6699 104.219 57.5 104.219C83.1055 104.219 104.219 83.3301 104.219 57.5C104.219 31.8945 83.1055 10.7812 57.5 10.7812Z" fill="#FF7A00"/>
</svg>
