<svg width="72" height="19" viewBox="0 0 72 19" fill="none" xmlns="http://www.w3.org/2000/svg">
<rect x="19.5" y="0.522217" width="33.5" height="17.6822" fill="white" stroke="#D9D9D9"/>
<path d="M36.7539 5.19287V13.7417H35.0664V7.13818L33.0391 7.78271V6.45264L36.5723 5.19287H36.7539Z" fill="#333333"/>
<path d="M1 2.02222C1 1.19379 1.67157 0.522217 2.5 0.522217H19.5V18.2044H2.5C1.67157 18.2044 1 17.5328 1 16.7044V2.02222Z" fill="white" stroke="#D9D9D9"/>
<path d="M11.1738 8.94995V9.84058H8.31445V8.94995H11.1738Z" fill="#333333"/>
<path d="M52.5 0.522217H69.5C70.3284 0.522217 71 1.19379 71 2.02222V16.7044C71 17.5328 70.3284 18.2044 69.5 18.2044H52.5V0.522217Z" fill="white" stroke="#D9D9D9"/>
<path d="M64.6504 8.44604V9.46558H58.8027V8.44604H64.6504ZM62.2715 5.95581V12.1667H61.1875V5.95581H62.2715Z" fill="#333333"/>
</svg>
