<svg width="17" height="17" viewBox="0 0 17 17" fill="none" xmlns="http://www.w3.org/2000/svg">
<path d="M14.5 8.68945V16.3782H2.5V8.68945" stroke="black" stroke-linecap="round" stroke-linejoin="round"/>
<path d="M16 4.84473H1V8.68911H16V4.84473Z" stroke="black" stroke-linecap="round" stroke-linejoin="round"/>
<path d="M8.5 16.3779V4.84473" stroke="black" stroke-linecap="round" stroke-linejoin="round"/>
<path d="M8.5 4.84439H5.125C4.62772 4.84439 4.15081 4.64187 3.79917 4.28139C3.44754 3.92091 3.25 3.43199 3.25 2.92219C3.25 2.4124 3.44754 1.92348 3.79917 1.563C4.15081 1.20252 4.62772 1 5.125 1C7.75 1 8.5 4.84439 8.5 4.84439Z" stroke="black" stroke-linecap="round" stroke-linejoin="round"/>
<path d="M8.5 4.84439H11.875C12.3723 4.84439 12.8492 4.64187 13.2008 4.28139C13.5525 3.92091 13.75 3.43199 13.75 2.92219C13.75 2.4124 13.5525 1.92348 13.2008 1.563C12.8492 1.20252 12.3723 1 11.875 1C9.25 1 8.5 4.84439 8.5 4.84439Z" stroke="black" stroke-linecap="round" stroke-linejoin="round"/>
</svg>
