<svg width="36" height="24" viewBox="0 0 36 24" fill="none" xmlns="http://www.w3.org/2000/svg">
<path d="M6.22816 0.144531C4.72673 0.144531 3.55895 1.16818 3.55895 2.37795V4.61137H0.889737C0.38926 4.61137 0 4.98361 0 5.35585C0 5.77461 0.38926 6.10032 0.889737 6.10032H15.1255C15.5704 6.10032 16.0153 6.47256 16.0153 6.84479C16.0153 7.26356 15.5704 7.58927 15.1255 7.58927H2.66921C2.16873 7.58927 1.77947 7.96151 1.77947 8.33374C1.77947 8.75251 2.16873 9.07822 2.66921 9.07822H13.3461C13.7909 9.07822 14.2358 9.45045 14.2358 9.82269C14.2358 10.2415 13.7909 10.5672 13.3461 10.5672H0.889737C0.38926 10.5672 0 10.9394 0 11.3116C0 11.7304 0.38926 12.0561 0.889737 12.0561H11.5666C12.0114 12.0561 12.4563 12.4283 12.4563 12.8006C12.4563 13.2194 12.0114 13.5451 11.5666 13.5451H3.55895V19.5008C3.55895 21.9669 5.89451 23.9677 8.89737 23.9677C11.8446 23.9677 14.2358 21.9669 14.2358 19.5008H21.3537C21.3537 21.9669 23.6892 23.9677 26.6921 23.9677C29.6394 23.9677 32.0305 21.9669 32.0305 19.5008H33.81C34.7553 19.5008 35.5895 18.8494 35.5895 18.0119C35.5895 17.2209 34.7553 16.523 33.81 16.523V11.2186C33.81 10.4276 33.4207 9.63657 32.7534 9.07822L28.4716 5.49544C27.7487 4.93708 26.8589 4.61137 25.9136 4.61137H23.1332V2.37795C23.1332 1.16818 21.9098 0.144531 20.4639 0.144531H6.22816ZM30.2511 11.2186V12.0561H23.1332V7.58927H25.9136L30.2511 11.2186ZM8.89737 21.7343C7.39594 21.7343 6.22816 20.7571 6.22816 19.5008C6.22816 18.2911 7.39594 17.2674 8.89737 17.2674C10.3432 17.2674 11.5666 18.2911 11.5666 19.5008C11.5666 20.7571 10.3432 21.7343 8.89737 21.7343ZM29.3613 19.5008C29.3613 20.7571 28.1379 21.7343 26.6921 21.7343C25.1907 21.7343 24.0229 20.7571 24.0229 19.5008C24.0229 18.2911 25.1907 17.2674 26.6921 17.2674C28.1379 17.2674 29.3613 18.2911 29.3613 19.5008Z" fill="#D9D9D9"/>
<path d="M15.1318 11.3945V16.6168H13.8403V11.3945H15.1318ZM17.6287 13.6255V14.4648H14.7788V13.6255H17.6287ZM17.93 11.3945V12.2374H14.7788V11.3945H17.93Z" fill="white"/>
<path d="M19.7295 13.5824V16.6168H18.4897V12.736H19.6563L19.7295 13.5824ZM21.1329 12.7109L21.1114 13.6685C21.0511 13.6614 20.9779 13.6554 20.8918 13.6506C20.8086 13.6434 20.7325 13.6398 20.6636 13.6398C20.4886 13.6398 20.3365 13.659 20.2073 13.6972C20.081 13.7331 19.9749 13.7869 19.8888 13.8586C19.8055 13.9304 19.7424 14.0176 19.6993 14.1205C19.6592 14.2233 19.6362 14.3404 19.6305 14.472L19.3808 14.4074C19.3808 14.1563 19.4109 13.9256 19.4712 13.7152C19.5315 13.5023 19.619 13.317 19.7338 13.1592C19.8514 13.0014 19.9949 12.8794 20.1643 12.7934C20.3336 12.7073 20.5273 12.6642 20.7454 12.6642C20.8143 12.6642 20.8846 12.669 20.9564 12.6786C21.0281 12.6858 21.087 12.6965 21.1329 12.7109Z" fill="white"/>
<path d="M23.7761 16.6886C23.4145 16.6886 23.0902 16.6407 22.8032 16.5451C22.5162 16.4471 22.2723 16.312 22.0714 16.1398C21.8733 15.9676 21.7212 15.768 21.615 15.5408C21.5088 15.3113 21.4558 15.0674 21.4558 14.8091V14.6656C21.4558 14.3715 21.506 14.1025 21.6064 13.8586C21.7069 13.6147 21.8504 13.4031 22.0369 13.2238C22.2263 13.0444 22.4559 12.9069 22.7257 12.8113C22.9955 12.7133 23.2997 12.6642 23.6384 12.6642C23.9684 12.6642 24.2611 12.7097 24.5166 12.8005C24.772 12.8914 24.9858 13.0205 25.158 13.1879C25.3331 13.3553 25.4651 13.5561 25.554 13.7905C25.643 14.0224 25.6875 14.2807 25.6875 14.5652V14.9956H21.9853V14.307H24.4692V14.2281C24.4692 14.0846 24.4376 13.9567 24.3745 13.8443C24.3142 13.7295 24.2224 13.6386 24.099 13.5717C23.9756 13.5047 23.8177 13.4713 23.6254 13.4713C23.4619 13.4713 23.3212 13.5011 23.2036 13.5609C23.0859 13.6207 22.9897 13.7044 22.9151 13.812C22.8434 13.9196 22.7888 14.0463 22.7515 14.1922C22.7171 14.3357 22.6999 14.4935 22.6999 14.6656V14.8091C22.6999 14.9645 22.7257 15.108 22.7774 15.2395C22.8319 15.371 22.908 15.4846 23.0055 15.5803C23.106 15.6759 23.2265 15.75 23.3671 15.8026C23.5106 15.8552 23.6728 15.8815 23.8536 15.8815C24.0775 15.8815 24.2855 15.8457 24.4778 15.7739C24.673 15.6998 24.8409 15.5886 24.9815 15.4404L25.5842 15.9856C25.4866 16.1027 25.3532 16.2151 25.1838 16.3227C25.0174 16.4303 24.8165 16.5188 24.5811 16.5881C24.3458 16.6551 24.0775 16.6886 23.7761 16.6886Z" fill="white"/>
<path d="M28.5374 16.6886C28.1758 16.6886 27.8514 16.6407 27.5645 16.5451C27.2775 16.4471 27.0335 16.312 26.8326 16.1398C26.6346 15.9676 26.4825 15.768 26.3763 15.5408C26.2701 15.3113 26.217 15.0674 26.217 14.8091V14.6656C26.217 14.3715 26.2672 14.1025 26.3677 13.8586C26.4681 13.6147 26.6116 13.4031 26.7982 13.2238C26.9876 13.0444 27.2172 12.9069 27.487 12.8113C27.7567 12.7133 28.061 12.6642 28.3996 12.6642C28.7297 12.6642 29.0224 12.7097 29.2778 12.8005C29.5332 12.8914 29.7471 13.0205 29.9192 13.1879C30.0943 13.3553 30.2263 13.5561 30.3153 13.7905C30.4043 14.0224 30.4488 14.2807 30.4488 14.5652V14.9956H26.7465V14.307H29.2305V14.2281C29.2305 14.0846 29.1989 13.9567 29.1357 13.8443C29.0755 13.7295 28.9836 13.6386 28.8602 13.5717C28.7368 13.5047 28.579 13.4713 28.3867 13.4713C28.2231 13.4713 28.0825 13.5011 27.9648 13.5609C27.8471 13.6207 27.751 13.7044 27.6764 13.812C27.6046 13.9196 27.5501 14.0463 27.5128 14.1922C27.4784 14.3357 27.4611 14.4935 27.4611 14.6656V14.8091C27.4611 14.9645 27.487 15.108 27.5386 15.2395C27.5932 15.371 27.6692 15.4846 27.7668 15.5803C27.8672 15.6759 27.9878 15.75 28.1284 15.8026C28.2719 15.8552 28.434 15.8815 28.6149 15.8815C28.8387 15.8815 29.0468 15.8457 29.2391 15.7739C29.4342 15.6998 29.6021 15.5886 29.7427 15.4404L30.3454 15.9856C30.2479 16.1027 30.1144 16.2151 29.9451 16.3227C29.7786 16.4303 29.5777 16.5188 29.3424 16.5881C29.1071 16.6551 28.8387 16.6886 28.5374 16.6886Z" fill="white"/>
</svg>
