<svg width="37" height="37" viewBox="0 0 37 37" fill="none" xmlns="http://www.w3.org/2000/svg">
<path d="M26.3001 3.20898H11.11C6.91537 3.20898 3.51495 6.6094 3.51495 10.804V25.9941C3.51495 30.1888 6.91537 33.5892 11.11 33.5892H26.3001C30.4947 33.5892 33.8951 30.1888 33.8951 25.9941V10.804C33.8951 6.6094 30.4947 3.20898 26.3001 3.20898Z" stroke="black" stroke-width="2" stroke-linecap="round" stroke-linejoin="round"/>
<path d="M24.7811 17.4426C24.9685 18.7068 24.7526 19.9979 24.164 21.1323C23.5754 22.2667 22.644 23.1866 21.5025 23.7612C20.3609 24.3358 19.0672 24.5358 17.8054 24.3327C16.5437 24.1297 15.378 23.534 14.4743 22.6303C13.5706 21.7266 12.9749 20.5609 12.7719 19.2992C12.5688 18.0374 12.7688 16.7437 13.3434 15.6021C13.918 14.4606 14.8379 13.5292 15.9723 12.9406C17.1067 12.352 18.3978 12.1361 19.662 12.3235C20.9515 12.5148 22.1454 13.1156 23.0672 14.0374C23.989 14.9592 24.5898 16.1531 24.7811 17.4426Z" stroke="black" stroke-width="2" stroke-linecap="round" stroke-linejoin="round"/>
<path d="M27.0596 10.0449H27.0757" stroke="black" stroke-width="2" stroke-linecap="round" stroke-linejoin="round"/>
</svg>
