<svg width="17" height="17" viewBox="0 0 17 17" fill="none" xmlns="http://www.w3.org/2000/svg">
<g clip-path="url(#clip0_3477_20340)">
<path d="M14.875 7.08398C14.875 12.0423 8.5 16.2923 8.5 16.2923C8.5 16.2923 2.125 12.0423 2.125 7.08398C2.125 5.39323 2.79665 3.77172 3.99219 2.57618C5.18774 1.38063 6.80924 0.708984 8.5 0.708984C10.1908 0.708984 11.8123 1.38063 13.0078 2.57618C14.2033 3.77172 14.875 5.39323 14.875 7.08398Z" stroke="white" stroke-width="1.5" stroke-linecap="round" stroke-linejoin="round"/>
<path d="M8.5 9.20898C9.6736 9.20898 10.625 8.25759 10.625 7.08398C10.625 5.91038 9.6736 4.95898 8.5 4.95898C7.32639 4.95898 6.375 5.91038 6.375 7.08398C6.375 8.25759 7.32639 9.20898 8.5 9.20898Z" stroke="white" stroke-width="1.5" stroke-linecap="round" stroke-linejoin="round"/>
</g>
<defs>
<clipPath id="clip0_3477_20340">
<rect width="17" height="17" fill="white"/>
</clipPath>
</defs>
</svg>
