<svg width="37" height="37" viewBox="0 0 37 37" fill="none" xmlns="http://www.w3.org/2000/svg">
<g clip-path="url(#clip0_3477_21189)">
<path d="M35.4141 4.61488C33.9595 5.64094 32.3489 6.42571 30.6444 6.93897C29.7296 5.88707 28.5138 5.14151 27.1614 4.80313C25.809 4.46475 24.3853 4.54986 23.0829 5.04697C21.7805 5.54408 20.6622 6.42919 19.8792 7.5826C19.0962 8.73601 18.6863 10.1021 18.705 11.496V13.015C16.0356 13.0842 13.3904 12.4922 11.0052 11.2916C8.61992 10.091 6.56861 8.31919 5.03393 6.13389C5.03393 6.13389 -1.04211 19.805 12.629 25.881C9.50062 28.0045 5.77393 29.0693 1.99591 28.919C15.667 36.5141 32.3761 28.919 32.3761 11.4504C32.3747 11.0273 32.334 10.6052 32.2546 10.1896C33.8049 8.66076 34.8989 6.73043 35.4141 4.61488V4.61488Z" stroke="black" stroke-width="2" stroke-linecap="round" stroke-linejoin="round"/>
</g>
<defs>
<clipPath id="clip0_3477_21189">
<rect width="36.4562" height="36.4562" fill="white" transform="translate(0.476929 0.0585938)"/>
</clipPath>
</defs>
</svg>
