<svg width="18" height="19" viewBox="0 0 18 19" fill="none" xmlns="http://www.w3.org/2000/svg">
<g clip-path="url(#clip0_4638_4861)">
<g clip-path="url(#clip1_4638_4861)">
<path d="M9 17.2686C13.4183 17.2686 17 13.6868 17 9.26855C17 4.85028 13.4183 1.26855 9 1.26855C4.58172 1.26855 1 4.85028 1 9.26855C1 13.6868 4.58172 17.2686 9 17.2686Z" stroke="black" stroke-linecap="round" stroke-linejoin="round"/>
<path d="M9 8.26855C10.1046 8.26855 11 7.37312 11 6.26855C11 5.16399 10.1046 4.26855 9 4.26855C7.89543 4.26855 7 5.16399 7 6.26855C7 7.37312 7.89543 8.26855 9 8.26855Z" stroke="black" stroke-linecap="round" stroke-linejoin="round"/>
<path d="M12 13.2686V12.2686C12 11.7381 11.842 11.2294 11.5607 10.8543C11.2794 10.4793 10.8978 10.2686 10.5 10.2686H7.5C7.10218 10.2686 6.72064 10.4793 6.43934 10.8543C6.15804 11.2294 6 11.7381 6 12.2686V13.2686" stroke="black" stroke-linecap="round" stroke-linejoin="round"/>
</g>
</g>
<defs>
<clipPath id="clip0_4638_4861">
<rect width="18" height="18" fill="white" transform="translate(0 0.268555)"/>
</clipPath>
<clipPath id="clip1_4638_4861">
<rect width="24" height="24" fill="white" transform="translate(-3 -2.73145)"/>
</clipPath>
</defs>
</svg>
