<svg width="23" height="20" viewBox="0 0 23 20" fill="none" xmlns="http://www.w3.org/2000/svg">
<path d="M13.9381 4.74872C14.9149 4.90726 15.8125 5.30468 16.5162 5.89011C17.2199 6.47554 17.6976 7.22235 17.8881 8.03495L13.9381 4.74872ZM13.9381 1.4209C15.9674 1.60845 17.8597 2.36448 19.3044 3.56486C20.749 4.76523 21.6601 6.3386 21.8881 8.02663L13.9381 1.4209ZM20.8881 14.6656V17.1615C20.8892 17.3932 20.8322 17.6225 20.7206 17.8348C20.6091 18.0471 20.4454 18.2377 20.2402 18.3944C20.035 18.551 19.7927 18.6702 19.5289 18.7445C19.265 18.8187 18.9855 18.8463 18.7081 18.8254C15.631 18.5472 12.6751 17.6724 10.0781 16.2713C7.66194 14.994 5.61345 13.2897 4.07812 11.2796C2.38809 9.10917 1.33636 6.63809 1.00812 4.06652C0.983127 3.83646 1.01599 3.60458 1.10462 3.38567C1.19324 3.16675 1.33569 2.96558 1.52288 2.79497C1.71008 2.62437 1.93792 2.48806 2.19191 2.39472C2.44589 2.30139 2.72046 2.25307 2.99812 2.25285H5.99812C6.48342 2.24888 6.95391 2.39186 7.32188 2.65513C7.68985 2.91841 7.93019 3.28402 7.99812 3.68382C8.12474 4.48255 8.35957 5.2668 8.69812 6.02162C8.83266 6.31939 8.86178 6.64302 8.78202 6.95414C8.70227 7.26526 8.51698 7.55084 8.24812 7.77704L6.97812 8.83363C8.40167 10.9165 10.4746 12.641 12.9781 13.8254L14.2481 12.7688C14.52 12.5451 14.8633 12.3909 15.2372 12.3246C15.6112 12.2582 16.0002 12.2825 16.3581 12.3944C17.2654 12.6761 18.2081 12.8714 19.1681 12.9768C19.6539 13.0338 20.0975 13.2373 20.4146 13.5487C20.7318 13.8601 20.9003 14.2576 20.8881 14.6656Z" stroke="black" stroke-linecap="round" stroke-linejoin="round"/>
</svg>
