<svg width="384" height="524" viewBox="0 0 384 524" fill="none" xmlns="http://www.w3.org/2000/svg">
<g opacity="0.18">
<path d="M464.065 336.523C433.386 390.349 370.175 431.529 288.245 431.529C170.929 431.529 91.9932 347.093 91.9932 262C91.9932 176.907 170.929 92.4706 288.245 92.4706C405.562 92.4706 484.497 176.907 484.497 262C484.497 274.501 482.794 286.987 479.515 299.194L570.676 209.382C543.876 89.9011 427.611 0 288.245 0C129.052 0 0 117.301 0 262C0 406.699 129.052 524 288.245 524C447.439 524 576.491 406.699 576.491 262C576.491 250.517 575.678 239.206 574.102 228.113L464.065 336.523Z" fill="black"/>
<path d="M1108.01 262C1108.01 347.093 1029.07 431.529 911.755 431.529C794.438 431.529 715.503 347.093 715.503 262C715.503 250.087 717.05 238.186 720.033 226.528L631.335 322.894C661.536 438.226 775.625 524 911.755 524C1070.95 524 1200 406.699 1200 262C1200 117.301 1070.95 0 911.755 0C752.561 0 623.509 117.301 623.509 262C623.509 276.339 624.777 290.409 627.215 304.123L738.345 183.385C769.85 131.578 831.914 92.4706 911.755 92.4706C1029.07 92.4706 1108.01 176.907 1108.01 262Z" fill="black"/>
<path d="M439.578 371.724L686.46 103.499L752.336 164.764L505.454 432.989L439.578 371.724Z" fill="black"/>
</g>
</svg>
