<svg width="42" height="49" viewBox="0 0 42 49" fill="none" xmlns="http://www.w3.org/2000/svg">
<path d="M40.1111 29.4444C40.1111 30.3874 39.7365 31.2918 39.0697 31.9586C38.4029 32.6254 37.4985 33 36.5556 33H4.55556C3.61256 33 2.70819 32.6254 2.0414 31.9586C1.3746 31.2918 1 30.3874 1 29.4444V9.88889C1 8.9459 1.3746 8.04153 2.0414 7.37473C2.70819 6.70794 3.61256 6.33333 4.55556 6.33333H11.6667L15.2222 1H25.8889L29.4444 6.33333H36.5556C37.4985 6.33333 38.4029 6.70794 39.0697 7.37473C39.7365 8.04153 40.1111 8.9459 40.1111 9.88889V29.4444Z" stroke="black" stroke-width="2" stroke-linecap="round" stroke-linejoin="round"/>
<path d="M20.5556 25.8888C24.4829 25.8888 27.6667 22.7051 27.6667 18.7777C27.6667 14.8504 24.4829 11.6666 20.5556 11.6666C16.6282 11.6666 13.4445 14.8504 13.4445 18.7777C13.4445 22.7051 16.6282 25.8888 20.5556 25.8888Z" stroke="black" stroke-width="2" stroke-linecap="round" stroke-linejoin="round"/>
<path d="M5.21387 38.8906V46H3.75391V38.8906H5.21387ZM7.40137 38.8906V40.0381H1.60059V38.8906H7.40137ZM9.52051 38.5V46H8.11426V38.5H9.52051ZM9.32031 43.1729H8.93457C8.93783 42.805 8.98665 42.4665 9.08105 42.1572C9.17546 41.8447 9.31055 41.5745 9.48633 41.3467C9.66211 41.1156 9.87207 40.9365 10.1162 40.8096C10.3636 40.6826 10.637 40.6191 10.9365 40.6191C11.1969 40.6191 11.4329 40.6566 11.6445 40.7314C11.8594 40.8031 12.0433 40.9202 12.1963 41.083C12.3525 41.2425 12.473 41.4525 12.5576 41.7129C12.6423 41.9733 12.6846 42.2891 12.6846 42.6602V46H11.2686V42.6504C11.2686 42.416 11.2344 42.2321 11.166 42.0986C11.1009 41.9619 11.0049 41.8659 10.8779 41.8105C10.7542 41.752 10.6012 41.7227 10.4189 41.7227C10.2171 41.7227 10.0446 41.7601 9.90137 41.835C9.76139 41.9098 9.64909 42.014 9.56445 42.1475C9.47982 42.2777 9.41797 42.4307 9.37891 42.6064C9.33984 42.7822 9.32031 42.971 9.32031 43.1729ZM16.6055 44.8086V42.4551C16.6055 42.2858 16.5778 42.141 16.5225 42.0205C16.4671 41.8968 16.3809 41.8008 16.2637 41.7324C16.1497 41.6641 16.0016 41.6299 15.8193 41.6299C15.6631 41.6299 15.528 41.6576 15.4141 41.7129C15.3001 41.765 15.2122 41.8415 15.1504 41.9424C15.0885 42.04 15.0576 42.1556 15.0576 42.2891H13.6514C13.6514 42.0645 13.7035 41.8512 13.8076 41.6494C13.9118 41.4476 14.0632 41.2702 14.2617 41.1172C14.4603 40.9609 14.6963 40.8389 14.9697 40.751C15.2464 40.6631 15.5557 40.6191 15.8975 40.6191C16.3076 40.6191 16.6722 40.6875 16.9912 40.8242C17.3102 40.9609 17.5609 41.166 17.7432 41.4395C17.9287 41.7129 18.0215 42.0547 18.0215 42.4648V44.7256C18.0215 45.0153 18.0394 45.2529 18.0752 45.4385C18.111 45.6208 18.1631 45.7803 18.2314 45.917V46H16.8105C16.7422 45.8568 16.6901 45.6777 16.6543 45.4629C16.6217 45.2448 16.6055 45.0267 16.6055 44.8086ZM16.791 42.7822L16.8008 43.5781H16.0146C15.8291 43.5781 15.668 43.5993 15.5312 43.6416C15.3945 43.6839 15.2822 43.7441 15.1943 43.8223C15.1064 43.8971 15.0413 43.985 14.999 44.0859C14.96 44.1868 14.9404 44.2975 14.9404 44.418C14.9404 44.5384 14.9681 44.6475 15.0234 44.7451C15.0788 44.8395 15.1585 44.9144 15.2627 44.9697C15.3669 45.0218 15.4889 45.0479 15.6289 45.0479C15.8405 45.0479 16.0244 45.0055 16.1807 44.9209C16.3369 44.8363 16.4574 44.7321 16.542 44.6084C16.6299 44.4847 16.6755 44.3675 16.6787 44.2568L17.0498 44.8525C16.9977 44.986 16.9261 45.1243 16.835 45.2676C16.7471 45.4108 16.6348 45.5459 16.498 45.6729C16.3613 45.7965 16.1969 45.8991 16.0049 45.9805C15.8128 46.0586 15.585 46.0977 15.3213 46.0977C14.986 46.0977 14.6816 46.0309 14.4082 45.8975C14.138 45.7607 13.9232 45.5736 13.7637 45.3359C13.6074 45.0951 13.5293 44.8216 13.5293 44.5156C13.5293 44.2389 13.5814 43.9932 13.6855 43.7783C13.7897 43.5635 13.9427 43.3828 14.1445 43.2363C14.3496 43.0866 14.6051 42.9743 14.9111 42.8994C15.2171 42.8213 15.5719 42.7822 15.9756 42.7822H16.791ZM20.5947 45.4043L21.9961 40.7168H23.5049L21.3809 46.7959C21.3353 46.9294 21.2734 47.0726 21.1953 47.2256C21.1204 47.3786 21.0179 47.5234 20.8877 47.6602C20.7607 47.8001 20.5996 47.9141 20.4043 48.002C20.2122 48.0898 19.9762 48.1338 19.6963 48.1338C19.5628 48.1338 19.4538 48.1257 19.3691 48.1094C19.2845 48.0931 19.1836 48.0703 19.0664 48.041V47.0107C19.1022 47.0107 19.1396 47.0107 19.1787 47.0107C19.2178 47.014 19.2552 47.0156 19.291 47.0156C19.4766 47.0156 19.6279 46.9945 19.7451 46.9521C19.8623 46.9098 19.9567 46.8447 20.0283 46.7568C20.0999 46.6722 20.1569 46.5615 20.1992 46.4248L20.5947 45.4043ZM20.0088 40.7168L21.1562 44.5449L21.3564 46.0342L20.3994 46.1367L18.5 40.7168H20.0088ZM29.6768 44.8477V38.5H31.0928V46H29.8184L29.6768 44.8477ZM26.3369 43.4219V43.3193C26.3369 42.9157 26.3825 42.5495 26.4736 42.2207C26.5648 41.8887 26.6982 41.6038 26.874 41.3662C27.0498 41.1286 27.2663 40.9447 27.5234 40.8145C27.7806 40.6842 28.0736 40.6191 28.4023 40.6191C28.7116 40.6191 28.9818 40.6842 29.2129 40.8145C29.4473 40.9447 29.6458 41.1302 29.8086 41.3711C29.9746 41.6087 30.1081 41.8903 30.209 42.2158C30.3099 42.5381 30.3831 42.8913 30.4287 43.2754V43.5C30.3831 43.8678 30.3099 44.2096 30.209 44.5254C30.1081 44.8411 29.9746 45.1178 29.8086 45.3555C29.6458 45.5898 29.4473 45.7721 29.2129 45.9023C28.9785 46.0326 28.7051 46.0977 28.3926 46.0977C28.0638 46.0977 27.7708 46.0309 27.5137 45.8975C27.2598 45.764 27.0449 45.5768 26.8691 45.3359C26.6966 45.0951 26.5648 44.8118 26.4736 44.4863C26.3825 44.1608 26.3369 43.806 26.3369 43.4219ZM27.7432 43.3193V43.4219C27.7432 43.64 27.7594 43.8434 27.792 44.0322C27.8278 44.221 27.8848 44.3887 27.9629 44.5352C28.0443 44.6784 28.1484 44.7907 28.2754 44.8721C28.4056 44.9502 28.5635 44.9893 28.749 44.9893C28.9899 44.9893 29.1885 44.9355 29.3447 44.8281C29.501 44.7174 29.6198 44.5661 29.7012 44.374C29.7858 44.182 29.8346 43.9606 29.8477 43.71V43.0703C29.8379 42.8652 29.8086 42.6813 29.7598 42.5186C29.7142 42.3525 29.6458 42.2109 29.5547 42.0938C29.4668 41.9766 29.3561 41.8854 29.2227 41.8203C29.0924 41.7552 28.9378 41.7227 28.7588 41.7227C28.5765 41.7227 28.4202 41.765 28.29 41.8496C28.1598 41.931 28.054 42.0433 27.9727 42.1865C27.8945 42.3298 27.8359 42.499 27.7969 42.6943C27.7611 42.8864 27.7432 43.0947 27.7432 43.3193ZM31.8496 39.1689V40.0381H28.4316V39.1689H31.8496ZM32.6309 43.4121V43.3096C32.6309 42.9222 32.6862 42.5658 32.7969 42.2402C32.9076 41.9115 33.0687 41.6266 33.2803 41.3857C33.4919 41.1449 33.7523 40.9577 34.0615 40.8242C34.3708 40.6875 34.7256 40.6191 35.126 40.6191C35.5264 40.6191 35.8828 40.6875 36.1953 40.8242C36.5078 40.9577 36.7699 41.1449 36.9814 41.3857C37.1963 41.6266 37.359 41.9115 37.4697 42.2402C37.5804 42.5658 37.6357 42.9222 37.6357 43.3096V43.4121C37.6357 43.7962 37.5804 44.1527 37.4697 44.4814C37.359 44.807 37.1963 45.0918 36.9814 45.3359C36.7699 45.5768 36.5094 45.764 36.2002 45.8975C35.891 46.0309 35.5361 46.0977 35.1357 46.0977C34.7354 46.0977 34.3789 46.0309 34.0664 45.8975C33.7572 45.764 33.4951 45.5768 33.2803 45.3359C33.0687 45.0918 32.9076 44.807 32.7969 44.4814C32.6862 44.1527 32.6309 43.7962 32.6309 43.4121ZM34.0371 43.3096V43.4121C34.0371 43.6335 34.0566 43.8402 34.0957 44.0322C34.1348 44.2243 34.1966 44.3936 34.2812 44.54C34.3691 44.6833 34.4831 44.7956 34.623 44.877C34.763 44.9583 34.9339 44.999 35.1357 44.999C35.3311 44.999 35.4987 44.9583 35.6387 44.877C35.7786 44.7956 35.891 44.6833 35.9756 44.54C36.0602 44.3936 36.1221 44.2243 36.1611 44.0322C36.2035 43.8402 36.2246 43.6335 36.2246 43.4121V43.3096C36.2246 43.0947 36.2035 42.8929 36.1611 42.7041C36.1221 42.512 36.0586 42.3428 35.9707 42.1963C35.8861 42.0465 35.7738 41.9294 35.6338 41.8447C35.4938 41.7601 35.3245 41.7178 35.126 41.7178C34.9274 41.7178 34.7581 41.7601 34.6182 41.8447C34.4814 41.9294 34.3691 42.0465 34.2812 42.1963C34.1966 42.3428 34.1348 42.512 34.0957 42.7041C34.0566 42.8929 34.0371 43.0947 34.0371 43.3096ZM35.5215 38.9053L36.8838 40.043H35.8828L35.1113 39.3643L34.3398 40.043H33.334L34.7012 38.9053H35.5215ZM37.1865 39.418H36.4443L36.376 38.8564C36.5127 38.8499 36.6217 38.8369 36.7031 38.8174C36.7878 38.7979 36.8496 38.7702 36.8887 38.7344C36.931 38.6953 36.9521 38.6465 36.9521 38.5879C36.9521 38.5098 36.9261 38.4512 36.874 38.4121C36.8219 38.3698 36.7503 38.3405 36.6592 38.3242C36.5713 38.3047 36.4688 38.2949 36.3516 38.2949L36.3857 37.7529C36.6201 37.7529 36.8252 37.7708 37.001 37.8066C37.1768 37.8424 37.3249 37.8962 37.4453 37.9678C37.5658 38.0361 37.6553 38.1191 37.7139 38.2168C37.7757 38.3145 37.8066 38.4251 37.8066 38.5488C37.8066 38.7409 37.7415 38.8841 37.6113 38.9785C37.4844 39.0697 37.3428 39.1266 37.1865 39.1494V39.418ZM39.9844 40.7168V46H38.5732V40.7168H39.9844ZM38.4854 39.3398C38.4854 39.1348 38.557 38.9655 38.7002 38.832C38.8434 38.6986 39.0355 38.6318 39.2764 38.6318C39.514 38.6318 39.7044 38.6986 39.8477 38.832C39.9941 38.9655 40.0674 39.1348 40.0674 39.3398C40.0674 39.5449 39.9941 39.7142 39.8477 39.8477C39.7044 39.9811 39.514 40.0479 39.2764 40.0479C39.0355 40.0479 38.8434 39.9811 38.7002 39.8477C38.557 39.7142 38.4854 39.5449 38.4854 39.3398Z" fill="black"/>
</svg>
