<svg width="71" height="71" viewBox="0 0 71 71" fill="none" xmlns="http://www.w3.org/2000/svg">
<rect width="71" height="71" rx="35.5" fill="white"/>
<path d="M54.1111 40.4444C54.1111 41.3874 53.7365 42.2918 53.0697 42.9586C52.4029 43.6254 51.4985 44 50.5556 44H18.5556C17.6126 44 16.7082 43.6254 16.0414 42.9586C15.3746 42.2918 15 41.3874 15 40.4444V20.8889C15 19.9459 15.3746 19.0415 16.0414 18.3747C16.7082 17.7079 17.6126 17.3333 18.5556 17.3333H25.6667L29.2222 12H39.8889L43.4444 17.3333H50.5556C51.4985 17.3333 52.4029 17.7079 53.0697 18.3747C53.7365 19.0415 54.1111 19.9459 54.1111 20.8889V40.4444Z" stroke="black" stroke-width="2" stroke-linecap="round" stroke-linejoin="round"/>
<path d="M34.5556 36.8889C38.4829 36.8889 41.6667 33.7051 41.6667 29.7778C41.6667 25.8504 38.4829 22.6667 34.5556 22.6667C30.6282 22.6667 27.4444 25.8504 27.4444 29.7778C27.4444 33.7051 30.6282 36.8889 34.5556 36.8889Z" stroke="black" stroke-width="2" stroke-linecap="round" stroke-linejoin="round"/>
<path d="M19.2139 49.8906V57H17.7539V49.8906H19.2139ZM21.4014 49.8906V51.0381H15.6006V49.8906H21.4014ZM23.5205 49.5V57H22.1143V49.5H23.5205ZM23.3203 54.1729H22.9346C22.9378 53.805 22.9867 53.4665 23.0811 53.1572C23.1755 52.8447 23.3105 52.5745 23.4863 52.3467C23.6621 52.1156 23.8721 51.9365 24.1162 51.8096C24.3636 51.6826 24.637 51.6191 24.9365 51.6191C25.1969 51.6191 25.4329 51.6566 25.6445 51.7314C25.8594 51.8031 26.0433 51.9202 26.1963 52.083C26.3525 52.2425 26.473 52.4525 26.5576 52.7129C26.6423 52.9733 26.6846 53.2891 26.6846 53.6602V57H25.2686V53.6504C25.2686 53.416 25.2344 53.2321 25.166 53.0986C25.1009 52.9619 25.0049 52.8659 24.8779 52.8105C24.7542 52.752 24.6012 52.7227 24.4189 52.7227C24.2171 52.7227 24.0446 52.7601 23.9014 52.835C23.7614 52.9098 23.6491 53.014 23.5645 53.1475C23.4798 53.2777 23.418 53.4307 23.3789 53.6064C23.3398 53.7822 23.3203 53.971 23.3203 54.1729ZM30.6055 55.8086V53.4551C30.6055 53.2858 30.5778 53.141 30.5225 53.0205C30.4671 52.8968 30.3809 52.8008 30.2637 52.7324C30.1497 52.6641 30.0016 52.6299 29.8193 52.6299C29.6631 52.6299 29.528 52.6576 29.4141 52.7129C29.3001 52.765 29.2122 52.8415 29.1504 52.9424C29.0885 53.04 29.0576 53.1556 29.0576 53.2891H27.6514C27.6514 53.0645 27.7035 52.8512 27.8076 52.6494C27.9118 52.4476 28.0632 52.2702 28.2617 52.1172C28.4603 51.9609 28.6963 51.8389 28.9697 51.751C29.2464 51.6631 29.5557 51.6191 29.8975 51.6191C30.3076 51.6191 30.6722 51.6875 30.9912 51.8242C31.3102 51.9609 31.5609 52.166 31.7432 52.4395C31.9287 52.7129 32.0215 53.0547 32.0215 53.4648V55.7256C32.0215 56.0153 32.0394 56.2529 32.0752 56.4385C32.111 56.6208 32.1631 56.7803 32.2314 56.917V57H30.8105C30.7422 56.8568 30.6901 56.6777 30.6543 56.4629C30.6217 56.2448 30.6055 56.0267 30.6055 55.8086ZM30.791 53.7822L30.8008 54.5781H30.0146C29.8291 54.5781 29.668 54.5993 29.5312 54.6416C29.3945 54.6839 29.2822 54.7441 29.1943 54.8223C29.1064 54.8971 29.0413 54.985 28.999 55.0859C28.96 55.1868 28.9404 55.2975 28.9404 55.418C28.9404 55.5384 28.9681 55.6475 29.0234 55.7451C29.0788 55.8395 29.1585 55.9144 29.2627 55.9697C29.3669 56.0218 29.4889 56.0479 29.6289 56.0479C29.8405 56.0479 30.0244 56.0055 30.1807 55.9209C30.3369 55.8363 30.4574 55.7321 30.542 55.6084C30.6299 55.4847 30.6755 55.3675 30.6787 55.2568L31.0498 55.8525C30.9977 55.986 30.9261 56.1243 30.835 56.2676C30.7471 56.4108 30.6348 56.5459 30.498 56.6729C30.3613 56.7965 30.1969 56.8991 30.0049 56.9805C29.8128 57.0586 29.585 57.0977 29.3213 57.0977C28.986 57.0977 28.6816 57.0309 28.4082 56.8975C28.138 56.7607 27.9232 56.5736 27.7637 56.3359C27.6074 56.0951 27.5293 55.8216 27.5293 55.5156C27.5293 55.2389 27.5814 54.9932 27.6855 54.7783C27.7897 54.5635 27.9427 54.3828 28.1445 54.2363C28.3496 54.0866 28.6051 53.9743 28.9111 53.8994C29.2171 53.8213 29.5719 53.7822 29.9756 53.7822H30.791ZM34.5947 56.4043L35.9961 51.7168H37.5049L35.3809 57.7959C35.3353 57.9294 35.2734 58.0726 35.1953 58.2256C35.1204 58.3786 35.0179 58.5234 34.8877 58.6602C34.7607 58.8001 34.5996 58.9141 34.4043 59.002C34.2122 59.0898 33.9762 59.1338 33.6963 59.1338C33.5628 59.1338 33.4538 59.1257 33.3691 59.1094C33.2845 59.0931 33.1836 59.0703 33.0664 59.041V58.0107C33.1022 58.0107 33.1396 58.0107 33.1787 58.0107C33.2178 58.014 33.2552 58.0156 33.291 58.0156C33.4766 58.0156 33.6279 57.9945 33.7451 57.9521C33.8623 57.9098 33.9567 57.8447 34.0283 57.7568C34.0999 57.6722 34.1569 57.5615 34.1992 57.4248L34.5947 56.4043ZM34.0088 51.7168L35.1562 55.5449L35.3564 57.0342L34.3994 57.1367L32.5 51.7168H34.0088ZM43.6768 55.8477V49.5H45.0928V57H43.8184L43.6768 55.8477ZM40.3369 54.4219V54.3193C40.3369 53.9157 40.3825 53.5495 40.4736 53.2207C40.5648 52.8887 40.6982 52.6038 40.874 52.3662C41.0498 52.1286 41.2663 51.9447 41.5234 51.8145C41.7806 51.6842 42.0736 51.6191 42.4023 51.6191C42.7116 51.6191 42.9818 51.6842 43.2129 51.8145C43.4473 51.9447 43.6458 52.1302 43.8086 52.3711C43.9746 52.6087 44.1081 52.8903 44.209 53.2158C44.3099 53.5381 44.3831 53.8913 44.4287 54.2754V54.5C44.3831 54.8678 44.3099 55.2096 44.209 55.5254C44.1081 55.8411 43.9746 56.1178 43.8086 56.3555C43.6458 56.5898 43.4473 56.7721 43.2129 56.9023C42.9785 57.0326 42.7051 57.0977 42.3926 57.0977C42.0638 57.0977 41.7708 57.0309 41.5137 56.8975C41.2598 56.764 41.0449 56.5768 40.8691 56.3359C40.6966 56.0951 40.5648 55.8118 40.4736 55.4863C40.3825 55.1608 40.3369 54.806 40.3369 54.4219ZM41.7432 54.3193V54.4219C41.7432 54.64 41.7594 54.8434 41.792 55.0322C41.8278 55.221 41.8848 55.3887 41.9629 55.5352C42.0443 55.6784 42.1484 55.7907 42.2754 55.8721C42.4056 55.9502 42.5635 55.9893 42.749 55.9893C42.9899 55.9893 43.1885 55.9355 43.3447 55.8281C43.501 55.7174 43.6198 55.5661 43.7012 55.374C43.7858 55.182 43.8346 54.9606 43.8477 54.71V54.0703C43.8379 53.8652 43.8086 53.6813 43.7598 53.5186C43.7142 53.3525 43.6458 53.2109 43.5547 53.0938C43.4668 52.9766 43.3561 52.8854 43.2227 52.8203C43.0924 52.7552 42.9378 52.7227 42.7588 52.7227C42.5765 52.7227 42.4202 52.765 42.29 52.8496C42.1598 52.931 42.054 53.0433 41.9727 53.1865C41.8945 53.3298 41.8359 53.499 41.7969 53.6943C41.7611 53.8864 41.7432 54.0947 41.7432 54.3193ZM45.8496 50.1689V51.0381H42.4316V50.1689H45.8496ZM46.6309 54.4121V54.3096C46.6309 53.9222 46.6862 53.5658 46.7969 53.2402C46.9076 52.9115 47.0687 52.6266 47.2803 52.3857C47.4919 52.1449 47.7523 51.9577 48.0615 51.8242C48.3708 51.6875 48.7256 51.6191 49.126 51.6191C49.5264 51.6191 49.8828 51.6875 50.1953 51.8242C50.5078 51.9577 50.7699 52.1449 50.9814 52.3857C51.1963 52.6266 51.359 52.9115 51.4697 53.2402C51.5804 53.5658 51.6357 53.9222 51.6357 54.3096V54.4121C51.6357 54.7962 51.5804 55.1527 51.4697 55.4814C51.359 55.807 51.1963 56.0918 50.9814 56.3359C50.7699 56.5768 50.5094 56.764 50.2002 56.8975C49.891 57.0309 49.5361 57.0977 49.1357 57.0977C48.7354 57.0977 48.3789 57.0309 48.0664 56.8975C47.7572 56.764 47.4951 56.5768 47.2803 56.3359C47.0687 56.0918 46.9076 55.807 46.7969 55.4814C46.6862 55.1527 46.6309 54.7962 46.6309 54.4121ZM48.0371 54.3096V54.4121C48.0371 54.6335 48.0566 54.8402 48.0957 55.0322C48.1348 55.2243 48.1966 55.3936 48.2812 55.54C48.3691 55.6833 48.4831 55.7956 48.623 55.877C48.763 55.9583 48.9339 55.999 49.1357 55.999C49.3311 55.999 49.4987 55.9583 49.6387 55.877C49.7786 55.7956 49.891 55.6833 49.9756 55.54C50.0602 55.3936 50.1221 55.2243 50.1611 55.0322C50.2035 54.8402 50.2246 54.6335 50.2246 54.4121V54.3096C50.2246 54.0947 50.2035 53.8929 50.1611 53.7041C50.1221 53.512 50.0586 53.3428 49.9707 53.1963C49.8861 53.0465 49.7738 52.9294 49.6338 52.8447C49.4938 52.7601 49.3245 52.7178 49.126 52.7178C48.9274 52.7178 48.7581 52.7601 48.6182 52.8447C48.4814 52.9294 48.3691 53.0465 48.2812 53.1963C48.1966 53.3428 48.1348 53.512 48.0957 53.7041C48.0566 53.8929 48.0371 54.0947 48.0371 54.3096ZM49.5215 49.9053L50.8838 51.043H49.8828L49.1113 50.3643L48.3398 51.043H47.334L48.7012 49.9053H49.5215ZM51.1865 50.418H50.4443L50.376 49.8564C50.5127 49.8499 50.6217 49.8369 50.7031 49.8174C50.7878 49.7979 50.8496 49.7702 50.8887 49.7344C50.931 49.6953 50.9521 49.6465 50.9521 49.5879C50.9521 49.5098 50.9261 49.4512 50.874 49.4121C50.8219 49.3698 50.7503 49.3405 50.6592 49.3242C50.5713 49.3047 50.4688 49.2949 50.3516 49.2949L50.3857 48.7529C50.6201 48.7529 50.8252 48.7708 51.001 48.8066C51.1768 48.8424 51.3249 48.8962 51.4453 48.9678C51.5658 49.0361 51.6553 49.1191 51.7139 49.2168C51.7757 49.3145 51.8066 49.4251 51.8066 49.5488C51.8066 49.7409 51.7415 49.8841 51.6113 49.9785C51.4844 50.0697 51.3428 50.1266 51.1865 50.1494V50.418ZM53.9844 51.7168V57H52.5732V51.7168H53.9844ZM52.4854 50.3398C52.4854 50.1348 52.557 49.9655 52.7002 49.832C52.8434 49.6986 53.0355 49.6318 53.2764 49.6318C53.514 49.6318 53.7044 49.6986 53.8477 49.832C53.9941 49.9655 54.0674 50.1348 54.0674 50.3398C54.0674 50.5449 53.9941 50.7142 53.8477 50.8477C53.7044 50.9811 53.514 51.0479 53.2764 51.0479C53.0355 51.0479 52.8434 50.9811 52.7002 50.8477C52.557 50.7142 52.4854 50.5449 52.4854 50.3398Z" fill="black"/>
</svg>
