<svg width="21" height="22" viewBox="0 0 21 22" fill="none" xmlns="http://www.w3.org/2000/svg">
<path d="M16.3767 11.7143L16.2574 12.1998L16.8767 12.352V11.7143H16.3767ZM11.2512 13.9464L11.6797 14.204L11.6847 14.1957L11.6893 14.1873L11.2512 13.9464ZM11.5605 19.125L11.1629 19.4283L11.1685 19.4354L11.5605 19.125ZM11.914 19.5714V20.0714H12.9476L12.3059 19.261L11.914 19.5714ZM7.40698 4.07143C7.13083 4.07143 6.90698 4.29529 6.90698 4.57143C6.90698 4.84757 7.13083 5.07143 7.40698 5.07143V4.07143ZM13.2395 5.07143C13.5157 5.07143 13.7395 4.84757 13.7395 4.57143C13.7395 4.29529 13.5157 4.07143 13.2395 4.07143V5.07143ZM7.40698 8.53571C7.13083 8.53571 6.90698 8.75957 6.90698 9.03571C6.90698 9.31186 7.13083 9.53571 7.40698 9.53571V8.53571ZM13.2395 9.53571C13.5157 9.53571 13.7395 9.31186 13.7395 9.03571C13.7395 8.75957 13.5157 8.53571 13.2395 8.53571V9.53571ZM7.36279 12.8214C7.08665 12.8214 6.86279 13.0453 6.86279 13.3214C6.86279 13.5976 7.08665 13.8214 7.36279 13.8214V12.8214ZM8.86512 13.8214C9.14126 13.8214 9.36512 13.5976 9.36512 13.3214C9.36512 13.0453 9.14126 12.8214 8.86512 12.8214V13.8214ZM15.8163 14.75C15.8163 14.4739 15.5924 14.25 15.3163 14.25C15.0401 14.25 14.8163 14.4739 14.8163 14.75H15.8163ZM15.3163 16.8036H14.8163C14.8163 17.0797 15.0401 17.3036 15.3163 17.3036V16.8036ZM17.393 17.3036C17.6692 17.3036 17.893 17.0797 17.893 16.8036C17.893 16.5274 17.6692 16.3036 17.393 16.3036V17.3036ZM1.88372 1.5H15.493V0.5H1.88372V1.5ZM1.5 18.6786V1.89286H0.5V18.6786H1.5ZM1.88372 19.0714C1.67663 19.0714 1.5 18.9004 1.5 18.6786H0.5C0.5 19.443 1.11468 20.0714 1.88372 20.0714V19.0714ZM15.493 1.5C15.7001 1.5 15.8767 1.67103 15.8767 1.89286H16.8767C16.8767 1.12846 16.2621 0.5 15.493 0.5V1.5ZM1.88372 0.5C1.11468 0.5 0.5 1.12846 0.5 1.89286H1.5C1.5 1.67103 1.67663 1.5 1.88372 1.5V0.5ZM16.4961 11.2287C15.8515 11.0703 14.786 11.075 13.7197 11.409C12.6414 11.7468 11.5096 12.4388 10.813 13.7055L11.6893 14.1873C12.23 13.2041 13.116 12.6461 14.0186 12.3633C14.9334 12.0768 15.8121 12.0904 16.2574 12.1998L16.4961 11.2287ZM10.8226 13.6889C10.5144 14.2017 10.2526 15.1602 10.2277 16.1933C10.2025 17.2365 10.4162 18.4495 11.1629 19.4283L11.958 18.8217C11.3968 18.0862 11.2055 17.1266 11.2274 16.2174C11.2496 15.2982 11.4871 14.5245 11.6797 14.204L10.8226 13.6889ZM11.914 19.0714H1.88372V20.0714H11.914V19.0714ZM11.1685 19.4354L11.522 19.8818L12.3059 19.261L11.9525 18.8146L11.1685 19.4354ZM19.5 16.2679C19.5 18.6101 17.622 20.5 15.3163 20.5V21.5C18.184 21.5 20.5 19.1526 20.5 16.2679H19.5ZM15.3163 20.5C13.0105 20.5 11.1326 18.6101 11.1326 16.2679H10.1326C10.1326 19.1526 12.4486 21.5 15.3163 21.5V20.5ZM11.1326 16.2679C11.1326 13.9256 13.0105 12.0357 15.3163 12.0357V11.0357C12.4486 11.0357 10.1326 13.3831 10.1326 16.2679H11.1326ZM15.3163 12.0357C17.622 12.0357 19.5 13.9256 19.5 16.2679H20.5C20.5 13.3831 18.184 11.0357 15.3163 11.0357V12.0357ZM7.40698 5.07143H13.2395V4.07143H7.40698V5.07143ZM7.40698 9.53571H13.2395V8.53571H7.40698V9.53571ZM7.36279 13.8214H8.86512V12.8214H7.36279V13.8214ZM4.65349 4.57143C4.65349 4.69464 4.55599 4.78571 4.44651 4.78571V5.78571C5.11794 5.78571 5.65349 5.2372 5.65349 4.57143H4.65349ZM4.44651 4.78571C4.33704 4.78571 4.23954 4.69464 4.23954 4.57143H3.23954C3.23954 5.2372 3.77508 5.78571 4.44651 5.78571V4.78571ZM4.23954 4.57143C4.23954 4.44822 4.33704 4.35714 4.44651 4.35714V3.35714C3.77508 3.35714 3.23954 3.90566 3.23954 4.57143H4.23954ZM4.44651 4.35714C4.55599 4.35714 4.65349 4.44822 4.65349 4.57143H5.65349C5.65349 3.90566 5.11794 3.35714 4.44651 3.35714V4.35714ZM4.65349 13.3214C4.65349 13.4446 4.55599 13.5357 4.44651 13.5357V14.5357C5.11794 14.5357 5.65349 13.9872 5.65349 13.3214H4.65349ZM4.44651 13.5357C4.33704 13.5357 4.23954 13.4446 4.23954 13.3214H3.23954C3.23954 13.9872 3.77508 14.5357 4.44651 14.5357V13.5357ZM4.23954 13.3214C4.23954 13.1982 4.33704 13.1071 4.44651 13.1071V12.1071C3.77508 12.1071 3.23954 12.6557 3.23954 13.3214H4.23954ZM4.44651 13.1071C4.55599 13.1071 4.65349 13.1982 4.65349 13.3214H5.65349C5.65349 12.6557 5.11794 12.1071 4.44651 12.1071V13.1071ZM4.65349 9.03571C4.65349 9.15892 4.55599 9.25 4.44651 9.25V10.25C5.11794 10.25 5.65349 9.70148 5.65349 9.03571H4.65349ZM4.44651 9.25C4.33704 9.25 4.23954 9.15892 4.23954 9.03571H3.23954C3.23954 9.70148 3.77508 10.25 4.44651 10.25V9.25ZM4.23954 9.03571C4.23954 8.91251 4.33704 8.82143 4.44651 8.82143V7.82143C3.77508 7.82143 3.23954 8.36994 3.23954 9.03571H4.23954ZM4.44651 8.82143C4.55599 8.82143 4.65349 8.91251 4.65349 9.03571H5.65349C5.65349 8.36994 5.11794 7.82143 4.44651 7.82143V8.82143ZM14.8163 14.75V16.8036H15.8163V14.75H14.8163ZM15.3163 17.3036H17.393V16.3036H15.3163V17.3036ZM15.8767 1.89286V11.7143H16.8767V1.89286H15.8767Z" fill="#FF7A00"/>
</svg>
