<svg width="12" height="12" viewBox="0 0 12 12" fill="none" xmlns="http://www.w3.org/2000/svg">
<path d="M3.54031 5.61417L5.57256 1C5.97679 1 6.36448 1.16204 6.65032 1.45049C6.93616 1.73893 7.09674 2.13014 7.09674 2.53806V4.5888H9.97237C10.1197 4.58712 10.2656 4.61777 10.3999 4.67863C10.5343 4.7395 10.654 4.82911 10.7506 4.94128C10.8473 5.05345 10.9186 5.18548 10.9597 5.32822C11.0008 5.47097 11.0106 5.62102 10.9885 5.76798L10.2874 10.3822C10.2506 10.6267 10.1275 10.8495 9.94082 11.0097C9.7541 11.1698 9.5163 11.2565 9.27125 11.2537H3.54031M3.54031 5.61417V11.2537M3.54031 5.61417H2.01612C1.74663 5.61417 1.48818 5.7222 1.29762 5.9145C1.10706 6.10679 1 6.3676 1 6.63954V10.2283C1 10.5003 1.10706 10.7611 1.29762 10.9534C1.48818 11.1457 1.74663 11.2537 2.01612 11.2537H3.54031" stroke="black" stroke-linecap="round" stroke-linejoin="round"/>
</svg>
