<svg width="12" height="12" viewBox="0 0 12 12" fill="none" xmlns="http://www.w3.org/2000/svg">
<path d="M11 5.84207C11.0019 6.59394 10.8306 7.33564 10.5 8.00676C10.108 8.81096 9.5054 9.48739 8.75968 9.96026C8.01396 10.4331 7.15457 10.6838 6.27777 10.6841C5.54451 10.6861 4.82117 10.5104 4.16666 10.1714L1 11.2538L2.05555 8.00676C1.72496 7.33564 1.55364 6.59394 1.55555 5.84207C1.55589 4.94302 1.80034 4.06182 2.26151 3.29717C2.72268 2.53253 3.38236 1.91463 4.16666 1.5127C4.82117 1.17372 5.54451 0.998056 6.27777 1.00002H6.55555C7.71352 1.06552 8.80723 1.56669 9.62729 2.40755C10.4473 3.24841 10.9361 4.36989 11 5.55725V5.84207Z" stroke="black" stroke-linecap="round" stroke-linejoin="round"/>
</svg>
