<svg width="384" height="524" viewBox="0 0 384 524" fill="none" xmlns="http://www.w3.org/2000/svg">
<g opacity="0.18">
<path d="M58.0648 336.523C27.3858 390.349 -35.825 431.529 -117.755 431.529C-235.071 431.529 -314.007 347.093 -314.007 262C-314.007 176.907 -235.071 92.4706 -117.755 92.4706C-0.438171 92.4706 78.4974 176.907 78.4974 262C78.4974 274.501 76.7939 286.987 73.5154 299.194L164.676 209.382C137.876 89.9011 21.6111 0 -117.755 0C-276.948 0 -406 117.301 -406 262C-406 406.699 -276.948 524 -117.755 524C41.4388 524 170.491 406.699 170.491 262C170.491 250.517 169.678 239.206 168.102 228.113L58.0648 336.523Z" fill="black"/>
<path d="M702.007 262C702.007 347.093 623.071 431.529 505.755 431.529C388.438 431.529 309.503 347.093 309.503 262C309.503 250.087 311.05 238.186 314.033 226.528L225.335 322.894C255.536 438.226 369.625 524 505.755 524C664.948 524 794 406.699 794 262C794 117.301 664.948 0 505.755 0C346.561 0 217.509 117.301 217.509 262C217.509 276.339 218.777 290.409 221.215 304.123L329.551 183C361.056 131.193 425.914 92.4706 505.755 92.4706C623.071 92.4706 702.007 176.907 702.007 262Z" fill="black"/>
<path d="M33.5779 371.724L280.46 103.499L350.582 155.5L99.4538 432.989L33.5779 371.724Z" fill="black"/>
</g>
</svg>
