<svg width="384" height="524" viewBox="0 0 384 524" fill="none" xmlns="http://www.w3.org/2000/svg">
<g opacity="0.18">
<path d="M-347.935 336.523C-378.614 390.349 -441.825 431.529 -523.755 431.529C-641.071 431.529 -720.007 347.093 -720.007 262C-720.007 176.907 -641.071 92.4706 -523.755 92.4706C-406.438 92.4706 -327.503 176.907 -327.503 262C-327.503 274.501 -329.206 286.987 -332.485 299.194L-241.324 209.382C-268.124 89.9011 -384.389 0 -523.755 0C-682.948 0 -812 117.301 -812 262C-812 406.699 -682.948 524 -523.755 524C-364.561 524 -235.509 406.699 -235.509 262C-235.509 250.517 -236.322 239.206 -237.898 228.113L-347.935 336.523Z" fill="black"/>
<path d="M296.007 262C296.007 347.093 217.071 431.529 99.7546 431.529C-17.5619 431.529 -96.4975 347.093 -96.4975 262C-96.4975 250.087 -94.9502 238.186 -91.9669 226.528L-180.665 322.894C-150.464 438.226 -36.3746 524 99.7546 524C258.948 524 388 406.699 388 262C388 117.301 258.948 0 99.7546 0C-59.4388 0 -188.491 117.301 -188.491 262C-188.491 276.339 -187.223 290.409 -184.785 304.123L-73.655 183.385C-42.1503 131.578 19.9139 92.4706 99.7546 92.4706C217.071 92.4706 296.007 176.907 296.007 262Z" fill="black"/>
<path d="M-372.422 371.724L-125.54 103.499L-59.6639 164.764L-306.546 432.989L-372.422 371.724Z" fill="black"/>
</g>
</svg>
